<?xml version="1.0" standalone="no"?>
<!DOCTYPE svg PUBLIC "-//W3C//DTD SVG 20010904//EN"
 "http://www.w3.org/TR/2001/REC-SVG-20010904/DTD/svg10.dtd">
<svg version="1.0" xmlns="http://www.w3.org/2000/svg"
 width="120.000000pt" height="120.000000pt" viewBox="0 0 120.000000 120.000000"
 preserveAspectRatio="xMidYMid meet">

<g transform="translate(0.000000,120.000000) scale(0.100000,-0.100000)"
fill="#ff0000" stroke="none">
<path d="M60 1140 c-19 -19 -20 -33 -20 -540 0 -507 1 -521 20 -540 19 -19 33
-20 540 -20 507 0 521 1 540 20 19 19 20 33 20 540 0 507 -1 521 -20 540 -19
19 -33 20 -540 20 -507 0 -521 -1 -540 -20z m980 -540 l0 -440 -440 0 -440 0
0 440 0 440 440 0 440 0 0 -440z"/>
</g>
</svg>
